Patient4_TMGait_0pt4_02_left_29_EMG.mot
version=1
nRows=16
nColumns=33
inDegrees=no
endheader
time	1LAddLong	2LGlutMax	3LGlutMed	4LIliopsoas	5LSemiMemb	6LBicFemLong	7LRecFem	8LVastMed	9LVastLat	10LGasMed	11LTibAnt	12lTibPost	13LPeroneusLong	14LSol	15LExtDigLong	16LFlexDigLong	17RAddLong	18RGlutMax	19RGlutMed	20RIliopsoas	21RSemiMemb	22RBicFemLong	23RRecFem	24RVastMed	25RVastLat	26RGasMed	27RTibAnt	28RTibPost	29RPeroneusLong	30RSol	31RExtDigLong	32RFlexDigLong
38.89	0.005188	0.10895	0.054779	0.009918	0.006561	0.003204	0.60471	0.006104	-0.32074	-0.085602	0.22614	-0.003662	0.037537	0.014648	-0.11887	0.027771	0.008545	-0.36118	-0.47287	-0.007477	-0.10651	0.11017	0.013123	-0.06897	-0.11383	-0.009155	0.11643	-0.004425	0.1152	0.010986	0.002136	-0.001831
38.891	0.016937	0.10117	0.040741	0.003052	0.009308	-0.007935	0.5452	0.00824	-0.29312	-0.024567	0.12863	0.00061	0.010529	-0.03418	-0.22812	0.004578	0.024261	-0.31006	-0.064392	-0.11475	-0.13275	0.12131	0.088959	-0.058136	-0.21988	-0.018921	0.18997	-0.003357	-0.042114	0.029297	0.001221	-0.011597
38.892	0.000458	0.06012	0.019989	0.022278	0.012512	0.000305	0.50903	0.012207	-0.26199	-0.044861	-0.12955	0.006256	0.041962	-0.066376	-0.19791	-0.004883	0.015259	-0.25559	0.49072	-0.10819	-0.063934	0.10284	0.14267	-0.14465	-0.13825	-0.022278	0.11841	0.003204	-0.048828	0.046539	0.002441	-0.01236
38.893	0.006256	0.049896	0.006714	0.019989	0.005188	-0.019836	0.4602	0.012207	-0.22461	-0.018921	-0.19134	0.002747	0.06134	-0.11566	-0.00473	0.003204	0.011902	-0.23789	0.80337	-0.061646	0.033264	0.09491	0.15137	-0.10773	-0.095215	-0.020905	-0.036774	-0.000305	-0.044403	-0.02182	-0.00351	-0.00885
38.894	-0.003357	0.049133	0.033112	0.002136	-0.000153	-0.034637	0.40237	0.016022	-0.17441	-0.009155	-0.088196	-0.005646	0.040588	-0.14389	0.024719	0.011597	0.024261	-0.25452	0.31403	0.01358	0.013885	0.081329	0.18707	0.050201	-0.050201	-0.023041	0.003967	-0.004425	-0.00061	-0.11047	-0.006104	-0.011749
38.895	-0.013123	0.023041	0.050354	0.000153	0.016479	-0.046234	0.3624	0.01709	-0.1387	-0.015259	0.063782	0.001221	0.021057	-0.15991	0.29511	0.005493	0.011902	-0.23743	0.22369	0.13931	-0.027008	0.065308	0.29037	0.12131	-0.040894	-0.018616	0.014648	-0.007629	0.027313	0.016937	-0.001373	-0.002747
38.896	-0.002136	-0.000916	0.007477	0.005951	0.00946	-0.033264	0.31326	0.013885	-0.11368	-0.041199	0.14984	-0.005493	0.035706	-0.14099	0.24933	0.006104	0.014038	-0.26337	0.14603	0.12604	-0.073547	0.075684	0.29022	0.0383	-0.02655	-0.010376	0.026855	-0.002136	0.014191	0.056915	0.001221	-0.00885
38.897	-0.001526	-0.006714	0.004272	0.004272	0.011597	-0.018005	0.31189	0.005798	-0.10132	-0.041962	0.12436	-0.002289	0.019836	-0.06485	0.30182	0.010681	0.024414	-0.30487	0.08255	0.051575	-0.11536	0.10407	0.28046	-0.007935	-0.051117	-0.010834	0.032501	-0.006104	0.011749	0.050201	0.000763	-0.004578
38.898	0.010223	-0.000153	0.028076	0.011444	0.010834	-0.010986	0.271	0.009155	-0.083771	-0.059357	-0.005188	-0.003357	0.050812	-0.03891	-0.62546	0.007172	0.019226	-0.20981	0.13565	-0.007019	-0.070038	0.12009	0.067596	-0.095825	0.028839	-0.004272	0.036011	-0.003815	-0.020142	0.006714	0.001068	-0.000916
38.899	-0.007629	-0.006866	0.017853	0.014191	0.015869	-0.000458	0.24857	0.006409	-0.024567	-0.02533	-0.13809	-0.004425	0.033569	-0.11566	-0.29037	0.00824	-0.010834	-0.26443	-0.12497	-0.026245	0.018311	0.12772	-0.10208	-0.19409	0.09613	-0.004425	0.07019	-0.005646	-0.089569	-0.031586	0.002441	-0.005035
38.9	0.009155	-0.047913	-0.008392	-0.007019	0.023804	-0.01358	0.21759	0.004272	-0.012817	0.001678	-0.1857	-0.00473	0.027008	-0.12436	-0.07843	0.009613	-0.003052	-0.27359	-0.029144	-0.02655	0.088959	0.10101	-0.056915	-0.18387	0.061035	-0.003815	0.0737	-0.003815	-0.089111	-0.047302	0.001373	-0.000916
38.901	-0.009155	-0.055847	-0.005951	0.014801	0.020294	0.003052	0.2095	0.002136	0.013885	-0.001831	-0.09903	-0.00412	0.003815	-0.13809	-0.34866	0.010529	0.009613	-0.28076	0.13382	0.003052	0.093994	0.062561	-0.071106	-0.011902	-0.022736	0.001221	0.01358	-0.00412	-0.007935	-0.016785	-0.003815	-0.002136
38.902	-0.000916	-0.069275	-0.00473	0.028381	0.00061	0.06012	0.20447	0.011292	0.041656	-0.000763	-0.089722	0.000305	-0.017395	-0.061646	-0.27618	0.007629	0.002289	-0.20554	0.41428	0.046234	-0.049438	0.11337	-0.17792	0.050201	-0.14847	-0.002747	0.078125	-0.000916	-0.065918	-0.016479	0.00412	-0.001831
38.903	-0.008545	-0.041199	-0.005798	0.003815	0.016632	0.083466	0.2066	0.015869	0.061798	-0.015411	-0.012665	-0.002289	0.00473	-0.088654	-0.15549	0.007935	-0.022736	-0.12863	0.54123	0.070953	-0.20798	0.14786	-0.2153	0.065308	-0.17685	-0.000916	0.065308	-0.001221	-0.10162	-0.011902	0.000763	-0.005798
38.904	-0.002747	-0.054169	-0.001831	0.007324	0.026245	0.086975	0.15427	0.014343	0.07431	-0.029144	0.009918	-0.000305	0.022278	-0.071716	0.042419	0.005035	-0.023193	-0.16922	0.36102	0.078125	-0.081329	0.10361	-0.25589	0.11246	-0.07843	-0.005493	0.049133	-0.00473	-0.21301	-0.009155	0.006256	-0.007172
38.905	0.000305	-0.062866	0.00473	-0.008392	0.044861	0.092163	0.12634	0.009003	0.11185	-0.050354	0.023956	0.000305	0.11704	-0.09552	0.085907	0.018158	-0.025482	-0.14191	-0.3154	0.068359	0.058899	0.081177	-0.29633	0.33554	0.11505	-0.014343	0.084076	-0.005341	-0.065155	0.007935	0.001373	-0.009766
